<svg aria-hidden="true" style="position:absolute;width:0;height:0" xmlns="http://www.w3.org/2000/svg" overflow="hidden">
  <defs>
    <symbol id="icon-office" viewBox="0 0 32 32">
      <path d="M0 32h16V0H0v32zM10 4h4v4h-4V4zm0 8h4v4h-4v-4zm0 8h4v4h-4v-4zM2 4h4v4H2V4zm0 8h4v4H2v-4zm0 8h4v4H2v-4zm16-10h14v2H18zm0 22h4v-8h6v8h4V14H18z"/>
    </symbol>
    <symbol id="icon-newspaper" viewBox="0 0 32 32">
      <path d="M28 8V4H0v22a2 2 0 002 2h27a3 3 0 003-3V8h-4zm-2 18H2V6h24v20zM4 10h20v2H4zm12 4h8v2h-8zm0 4h8v2h-8zm0 4h6v2h-6zM4 14h10v10H4z"/>
    </symbol>
    <symbol id="icon-pencil" viewBox="0 0 32 32">
      <path d="M27 0a5 5 0 014 8l-2 2-7-7 2-2c.836-.628 1.874-1 3-1zM2 23l-2 9 9-2 18.5-18.5-7-7L2 23zm20.362-11.638l-14 14-1.724-1.724 14-14 1.724 1.724z"/>
    </symbol>
  </defs>
</svg>
